<svg width="26" height="25" viewBox="0 0 26 25" fill="none" xmlns="http://www.w3.org/2000/svg">
<path d="M15.9549 4.47972V12.5909H19.6678C19.8725 12.591 20.0727 12.6504 20.2429 12.7619C20.4131 12.8733 20.5458 13.0316 20.6241 13.2168C20.7025 13.4021 20.723 13.6059 20.683 13.8026C20.6431 13.9992 20.5445 14.1798 20.3998 14.3216L13.5808 20.9992C13.3867 21.1893 13.1234 21.296 12.8488 21.296C12.5743 21.296 12.311 21.1893 12.1168 20.9992L5.29789 14.3216C5.15314 14.1798 5.05457 13.9992 5.01463 13.8026C4.9747 13.6059 4.99521 13.4021 5.07355 13.2168C5.1519 13.0316 5.28457 12.8733 5.45479 12.7619C5.62502 12.6504 5.82515 12.591 6.0299 12.5909H9.74273V4.47972C9.74273 4.21082 9.85181 3.95293 10.046 3.76278C10.2402 3.57264 10.5035 3.46582 10.7781 3.46582H14.9196C15.1942 3.46582 15.4575 3.57264 15.6517 3.76278C15.8459 3.95293 15.9549 4.21082 15.9549 4.47972V4.47972Z" stroke="#3370E8" stroke-width="2" stroke-linecap="round" stroke-linejoin="round"/>
</svg>
