<svg width="28" height="28" viewBox="0 0 28 28" fill="none" xmlns="http://www.w3.org/2000/svg">
<path d="M14.1326 10.0767L10.3711 10.8301C10.3711 10.8301 12.5621 13.0075 11.3551 16.4934" stroke="#C2C2C2" stroke-width="1.2" stroke-miterlimit="10" stroke-linecap="round" stroke-linejoin="round"/>
<path d="M19.3266 14.3901L20.7476 14.209L22.1193 14.0341C23.2788 10.9483 21.0601 7.22803 21.0601 7.22803L13.0939 7.68135C16.2322 13.1266 14.2086 15.0435 14.2086 15.0435L16.8043 14.7127" stroke="#C2C2C2" stroke-width="1.2" stroke-miterlimit="10" stroke-linecap="round" stroke-linejoin="round"/>
<path d="M20.966 20.6345L21.8166 15.8544C20.3043 15.6516 18.741 13.7734 18.741 13.7734" stroke="#C2C2C2" stroke-width="1.2" stroke-miterlimit="10" stroke-linecap="round" stroke-linejoin="round"/>
<path d="M19.3794 20.5021C18.1151 17.0179 18.741 13.7744 18.741 13.7744L12.2227 16.9305" stroke="#C2C2C2" stroke-width="1.2" stroke-miterlimit="10" stroke-linecap="round" stroke-linejoin="round"/>
<path d="M10.0451 16.6822C15.5642 16.6822 15.5642 20.6476 21.0842 20.6476C23.4561 20.6476 24.8081 19.9158 26.0178 19.0804C26.6499 17.5411 27 15.854 27 14.084C27 6.85701 21.1791 0.999023 14 0.999023C6.82086 0.999023 1 6.85701 1 14.084C1 16.2046 1.50231 18.208 2.39231 19.9798C4.90027 18.8497 5.96398 16.6822 10.0451 16.6822Z" stroke="#C2C2C2" stroke-width="1.2" stroke-miterlimit="10" stroke-linecap="round" stroke-linejoin="round"/>
<path d="M26.0177 19.0808C24.8089 19.9162 23.456 20.648 21.0842 20.648C15.5651 20.648 15.5651 16.6826 10.0451 16.6826C5.96392 16.6826 4.90021 18.851 2.39136 19.9802" stroke="#C2C2C2" stroke-width="1.2" stroke-miterlimit="10" stroke-linecap="round" stroke-linejoin="round"/>
<path d="M21.692 24.5684C21.3607 24.6072 21.0044 24.6288 20.6176 24.6288C15.607 24.6288 15.607 21.0762 10.5974 21.0762C7.60054 21.0762 6.39626 22.3469 4.84009 23.3689" stroke="#C2C2C2" stroke-width="1.2" stroke-miterlimit="10" stroke-linecap="round" stroke-linejoin="round"/>
<path d="M16.1328 26.9938C14.6868 26.1872 13.7046 25.0796 11.0104 25.0796C9.69148 25.0796 8.78357 25.3446 8.02966 25.7104" stroke="#C2C2C2" stroke-width="1.2" stroke-miterlimit="10" stroke-linecap="round" stroke-linejoin="round"/>
<path d="M16.6493 3.62109L17.6315 7.42248" stroke="#C2C2C2" stroke-width="1.2" stroke-miterlimit="10" stroke-linecap="round" stroke-linejoin="round"/>
<path d="M16.4028 3.74355L14.1755 5.55813C14.0107 5.69244 14.1047 5.96017 14.317 5.96017H17.0109C17.1578 5.96017 17.2652 5.82045 17.2285 5.67712L16.761 3.86254C16.7207 3.70299 16.5291 3.63989 16.4028 3.74355Z" fill="#C2C2C2"/>
<path d="M8.61681 8.50681C8.40814 8.42298 8.21111 8.26523 8.04632 8.05159C7.87796 7.83345 7.74183 7.5549 7.65406 7.24752L7.55286 6.89506C7.54032 6.84998 7.49912 6.81934 7.45255 6.81934C7.40598 6.81934 7.36568 6.84998 7.35225 6.89506L7.25105 7.24752C7.16239 7.5558 7.02715 7.83345 6.85879 8.05159C6.694 8.26523 6.49608 8.42298 6.2883 8.50681C6.24979 8.52214 6.22382 8.56 6.22292 8.60237C6.22203 8.64473 6.2471 8.68259 6.28561 8.69972L6.31785 8.71414C6.73161 8.89623 7.06925 9.34514 7.24568 9.9455L7.35315 10.3133C7.36658 10.3575 7.40688 10.3881 7.45255 10.3881C7.49823 10.3881 7.53943 10.3575 7.55196 10.3133L7.65943 9.9455C7.83497 9.34514 8.1735 8.89623 8.58726 8.71414L8.6195 8.69972C8.65801 8.68259 8.68219 8.64473 8.68219 8.60237C8.68129 8.56 8.65532 8.52214 8.61681 8.50681Z" fill="#C2C2C2"/>
<path d="M6.0607 9.60193C5.93084 9.54965 5.82068 9.40181 5.76426 9.2071L5.72933 9.08451C5.7168 9.03944 5.6756 9.00879 5.62903 9.00879C5.58246 9.00879 5.54216 9.03944 5.52872 9.08451L5.4938 9.2071C5.43737 9.40271 5.32722 9.54965 5.19736 9.60193C5.15885 9.61725 5.13288 9.65511 5.13198 9.69748C5.13109 9.73985 5.15616 9.77771 5.19467 9.79483L5.20631 9.80024C5.3308 9.85523 5.43737 9.99946 5.492 10.187L5.52962 10.315C5.54305 10.3591 5.58335 10.3898 5.62903 10.3898C5.6747 10.3898 5.7159 10.3591 5.72844 10.315L5.76605 10.187C5.82068 9.99946 5.92815 9.85523 6.05174 9.80024L6.06338 9.79483C6.10189 9.77771 6.12608 9.73985 6.12608 9.69748C6.12518 9.65511 6.09921 9.61815 6.0607 9.60193Z" fill="#C2C2C2"/>
</svg>
