<svg width="28" height="28" viewBox="0 0 28 28" fill="none" xmlns="http://www.w3.org/2000/svg">
<path d="M13.9993 17.5C15.2074 17.5 16.1868 16.5206 16.1868 15.3125C16.1868 14.1044 15.2074 13.125 13.9993 13.125C12.7911 13.125 11.8118 14.1044 11.8118 15.3125C11.8118 16.5206 12.7911 17.5 13.9993 17.5Z" stroke="#383838" stroke-linecap="round" stroke-linejoin="round"/>
<path d="M13.9993 17.5V20.125" stroke="#383838" stroke-linecap="round" stroke-linejoin="round"/>
<path d="M22.7493 9.625H5.24927C4.76602 9.625 4.37427 10.0168 4.37427 10.5V22.75C4.37427 23.2332 4.76602 23.625 5.24927 23.625H22.7493C23.2325 23.625 23.6243 23.2332 23.6243 22.75V10.5C23.6243 10.0168 23.2325 9.625 22.7493 9.625Z" stroke="#383838" stroke-linecap="round" stroke-linejoin="round"/>
<path d="M10.0618 9.625V5.6875C10.0618 4.64321 10.4766 3.64169 11.215 2.90327C11.9535 2.16484 12.955 1.75 13.9993 1.75C15.0436 1.75 16.0451 2.16484 16.7835 2.90327C17.5219 3.64169 17.9368 4.64321 17.9368 5.6875V9.625" stroke="#383838" stroke-linecap="round" stroke-linejoin="round"/>
</svg>
