<svg width="32" height="32" viewBox="0 0 32 32" fill="none" xmlns="http://www.w3.org/2000/svg">
<path d="M16.1529 11.4739L11.8127 12.3432C11.8127 12.3432 14.3408 14.8556 12.9482 18.8778" stroke="#2C3E50" stroke-width="1.5" stroke-miterlimit="10" stroke-linecap="round" stroke-linejoin="round"/>
<path d="M22.1461 16.4507L23.7857 16.2417L25.3684 16.04C26.7063 12.4794 24.1462 8.18677 24.1462 8.18677L14.9545 8.70983C18.5756 14.9928 16.2407 17.2046 16.2407 17.2046L19.2358 16.823" stroke="#2C3E50" stroke-width="1.5" stroke-miterlimit="10" stroke-linecap="round" stroke-linejoin="round"/>
<path d="M24.0377 23.6556L25.0191 18.1401C23.2742 17.9061 21.4703 15.739 21.4703 15.739" stroke="#2C3E50" stroke-width="1.5" stroke-miterlimit="10" stroke-linecap="round" stroke-linejoin="round"/>
<path d="M22.207 23.5032C20.7482 19.483 21.4704 15.7405 21.4704 15.7405L13.9492 19.3821" stroke="#2C3E50" stroke-width="1.5" stroke-miterlimit="10" stroke-linecap="round" stroke-linejoin="round"/>
<path d="M11.4367 19.096C17.8049 19.096 17.8049 23.6715 24.1741 23.6715C26.9109 23.6715 28.4709 22.8271 29.8667 21.8631C30.596 20.087 31 18.1403 31 16.098C31 7.75922 24.2836 1 16 1C7.71637 1 1 7.75922 1 16.098C1 18.5449 1.57959 20.8565 2.60652 22.9009C5.50031 21.5969 6.72767 19.096 11.4367 19.096Z" stroke="#2C3E50" stroke-width="1.5" stroke-miterlimit="10" stroke-linecap="round" stroke-linejoin="round"/>
<path d="M29.8666 21.8633C28.4719 22.8273 26.9109 23.6717 24.1741 23.6717C17.8059 23.6717 17.8059 19.0962 11.4367 19.0962C6.72765 19.0962 5.5003 21.5981 2.60547 22.9011" stroke="#2C3E50" stroke-width="1.5" stroke-miterlimit="10" stroke-linecap="round" stroke-linejoin="round"/>
<path d="M24.8756 28.1948C24.4933 28.2395 24.0821 28.2645 23.6358 28.2645C17.8544 28.2645 17.8544 24.1653 12.0741 24.1653C8.61617 24.1653 7.22661 25.6315 5.43103 26.8107" stroke="#2C3E50" stroke-width="1.5" stroke-miterlimit="10" stroke-linecap="round" stroke-linejoin="round"/>
<path d="M18.4609 30.9934C16.7924 30.0627 15.6591 28.7847 12.5504 28.7847C11.0286 28.7847 9.98098 29.0904 9.11108 29.5126" stroke="#2C3E50" stroke-width="1.5" stroke-miterlimit="10" stroke-linecap="round" stroke-linejoin="round"/>
<path d="M19.0569 4.0249L20.1902 8.41112" stroke="#2C3E50" stroke-width="1.5" stroke-miterlimit="10" stroke-linecap="round" stroke-linejoin="round"/>
<path d="M18.7724 4.16639L16.2024 6.26013C16.0123 6.41511 16.1208 6.72402 16.3657 6.72402H19.4741C19.6435 6.72402 19.7675 6.5628 19.7252 6.39743L19.1858 4.30368C19.1393 4.11958 18.9181 4.04678 18.7724 4.16639Z" fill="#2C3E50"/>
<path d="M9.78869 9.66242C9.54792 9.56569 9.32058 9.38367 9.13044 9.13716C8.93617 8.88546 8.7791 8.56406 8.67783 8.20939L8.56106 7.8027C8.54659 7.7507 8.49906 7.71533 8.44532 7.71533C8.39159 7.71533 8.34509 7.7507 8.32959 7.8027L8.21281 8.20939C8.11051 8.5651 7.95447 8.88546 7.7602 9.13716C7.57006 9.38367 7.34169 9.56569 7.10195 9.66242C7.05752 9.6801 7.02755 9.72379 7.02652 9.77267C7.02548 9.82156 7.05442 9.86524 7.09885 9.88501L7.13605 9.90165C7.61347 10.1117 8.00304 10.6297 8.20661 11.3224L8.33062 11.7468C8.34612 11.7978 8.39262 11.8331 8.44532 11.8331C8.49802 11.8331 8.54556 11.7978 8.56002 11.7468L8.68403 11.3224C8.88657 10.6297 9.27718 10.1117 9.75459 9.90165L9.79179 9.88501C9.83623 9.86524 9.86413 9.82156 9.86413 9.77267C9.86309 9.72379 9.83313 9.6801 9.78869 9.66242Z" fill="#2C3E50"/>
<path d="M6.83932 10.9261C6.68949 10.8658 6.56238 10.6952 6.49728 10.4705L6.45698 10.3291C6.44251 10.2771 6.39498 10.2417 6.34124 10.2417C6.28751 10.2417 6.24101 10.2771 6.22551 10.3291L6.1852 10.4705C6.1201 10.6962 5.993 10.8658 5.84316 10.9261C5.79873 10.9438 5.76876 10.9875 5.76773 11.0363C5.76669 11.0852 5.79563 11.1289 5.84006 11.1487L5.8535 11.1549C5.99713 11.2184 6.1201 11.3848 6.18314 11.6011L6.22654 11.7488C6.24204 11.7998 6.28854 11.8351 6.34124 11.8351C6.39394 11.8351 6.44148 11.7998 6.45595 11.7488L6.49935 11.6011C6.56238 11.3848 6.68639 11.2184 6.82899 11.1549L6.84242 11.1487C6.88686 11.1289 6.91476 11.0852 6.91476 11.0363C6.91373 10.9875 6.88376 10.9448 6.83932 10.9261Z" fill="#2C3E50"/>
</svg>
