<svg width="26" height="26" viewBox="0 0 26 26" fill="none" xmlns="http://www.w3.org/2000/svg">
<path d="M18.856 18.328C18.856 18.328 18.9358 18.271 19.0631 18.1737C20.9713 16.6983 22.1671 14.5603 22.1671 12.18C22.1671 7.74237 17.9946 4.14136 12.8509 4.14136C7.70512 4.14136 3.53052 7.74237 3.53052 12.18C3.53052 16.6196 7.70305 20.0964 12.8488 20.0964C13.2878 20.0964 14.0084 20.0674 15.0107 20.0094C16.3173 20.8584 18.2245 21.5552 19.8935 21.5552C20.4101 21.5552 20.6534 21.1307 20.3221 20.6979C19.8189 20.0809 19.1252 19.0921 18.856 18.3269V18.328Z" stroke="#2C3E50" stroke-width="2" stroke-linecap="round" stroke-linejoin="round"/>
<path d="M8.1897 14.4019C10.7781 16.9903 14.9196 16.9903 17.508 14.4019" stroke="#2C3E50" stroke-width="2" stroke-linecap="round" stroke-linejoin="round"/>
</svg>
