<svg width="40" height="40" viewBox="0 0 40 40" fill="none" xmlns="http://www.w3.org/2000/svg">
<rect width="40" height="40" fill="white"/>
<path d="M9.41621 12.8324C11.8552 12.8324 13.8324 10.8552 13.8324 8.41621C13.8324 5.9772 11.8552 4 9.41621 4C6.9772 4 5 5.9772 5 8.41621C5 10.8552 6.9772 12.8324 9.41621 12.8324Z" fill="#3D3E43"/>
<path d="M20.4999 12.8324C22.9389 12.8324 24.9161 10.8552 24.9161 8.41621C24.9161 5.9772 22.9389 4 20.4999 4C18.0609 4 16.0837 5.9772 16.0837 8.41621C16.0837 10.8552 18.0609 12.8324 20.4999 12.8324Z" fill="#3D3E43"/>
<path d="M20.4999 23.9161C22.9389 23.9161 24.9161 21.9389 24.9161 19.4999C24.9161 17.0609 22.9389 15.0837 20.4999 15.0837C18.0609 15.0837 16.0837 17.0609 16.0837 19.4999C16.0837 21.9389 18.0609 23.9161 20.4999 23.9161Z" fill="#3D3E43"/>
<path d="M20.4999 34.9999C22.9389 34.9999 24.9161 33.0227 24.9161 30.5837C24.9161 28.1447 22.9389 26.1675 20.4999 26.1675C18.0609 26.1675 16.0837 28.1447 16.0837 30.5837C16.0837 33.0227 18.0609 34.9999 20.4999 34.9999Z" fill="#3D3E43"/>
<path d="M31.5838 12.8324C34.0228 12.8324 36 10.8552 36 8.41621C36 5.9772 34.0228 4 31.5838 4C29.1448 4 27.1676 5.9772 27.1676 8.41621C27.1676 10.8552 29.1448 12.8324 31.5838 12.8324Z" fill="#3D3E43"/>
</svg>
